<mxfile host="Electron" modified="2024-07-25T10:02:59.383Z" agent="Mozilla/5.0 (Windows NT 10.0; Win64; x64) AppleWebKit/537.36 (KHTML, like Gecko) draw.io/24.6.4 Chrome/124.0.6367.207 Electron/30.0.6 Safari/537.36" etag="wLR5mO2vtxuYshKFJ0mI" version="24.6.4" type="device">
  <diagram name="Seite-1" id="sp1rI4xeojst68DhzQmf">
    <mxGraphModel dx="1290" dy="717" grid="1" gridSize="10" guides="1" tooltips="1" connect="1" arrows="1" fold="1" page="1" pageScale="1" pageWidth="1169" pageHeight="827" math="0" shadow="0">
      <root>
        <mxCell id="0" />
        <mxCell id="1" parent="0" />
        <mxCell id="gqhiWl2v0TtvqMzt5mS7-1" value="AuthorizedWorker" style="rounded=0;whiteSpace=wrap;html=1;" parent="1" vertex="1">
          <mxGeometry x="40" y="40" width="160" height="60" as="geometry" />
        </mxCell>
        <mxCell id="gqhiWl2v0TtvqMzt5mS7-2" value="" style="shape=umlActor;verticalLabelPosition=bottom;verticalAlign=top;html=1;outlineConnect=0;" parent="1" vertex="1">
          <mxGeometry x="170" y="50" width="20" height="40" as="geometry" />
        </mxCell>
        <mxCell id="gqhiWl2v0TtvqMzt5mS7-3" value="ViewProgramController" style="rounded=0;whiteSpace=wrap;html=1;" parent="1" vertex="1">
          <mxGeometry x="240" y="40" width="170" height="60" as="geometry" />
        </mxCell>
        <mxCell id="gqhiWl2v0TtvqMzt5mS7-4" value="CinemaShowDayEntry" style="rounded=0;whiteSpace=wrap;html=1;" parent="1" vertex="1">
          <mxGeometry x="600" y="40" width="140" height="60" as="geometry" />
        </mxCell>
        <mxCell id="gqhiWl2v0TtvqMzt5mS7-5" value="CinemaHallRepository" style="rounded=0;whiteSpace=wrap;html=1;" parent="1" vertex="1">
          <mxGeometry x="1160" y="40" width="140" height="60" as="geometry" />
        </mxCell>
        <mxCell id="gqhiWl2v0TtvqMzt5mS7-6" value="CinemaShowRepository" style="rounded=0;whiteSpace=wrap;html=1;" parent="1" vertex="1">
          <mxGeometry x="770" y="40" width="190" height="60" as="geometry" />
        </mxCell>
        <mxCell id="gqhiWl2v0TtvqMzt5mS7-7" value="" style="endArrow=none;dashed=1;html=1;dashPattern=1 3;strokeWidth=2;rounded=0;" parent="1" edge="1">
          <mxGeometry width="50" height="50" relative="1" as="geometry">
            <mxPoint x="120" y="2080" as="sourcePoint" />
            <mxPoint x="130" y="100" as="targetPoint" />
          </mxGeometry>
        </mxCell>
        <mxCell id="gqhiWl2v0TtvqMzt5mS7-8" value="" style="endArrow=none;dashed=1;html=1;dashPattern=1 3;strokeWidth=2;rounded=0;" parent="1" edge="1">
          <mxGeometry width="50" height="50" relative="1" as="geometry">
            <mxPoint x="320" y="2080" as="sourcePoint" />
            <mxPoint x="320" y="100" as="targetPoint" />
          </mxGeometry>
        </mxCell>
        <mxCell id="gqhiWl2v0TtvqMzt5mS7-9" value="" style="endArrow=none;dashed=1;html=1;dashPattern=1 3;strokeWidth=2;rounded=0;" parent="1" edge="1">
          <mxGeometry width="50" height="50" relative="1" as="geometry">
            <mxPoint x="660" y="400" as="sourcePoint" />
            <mxPoint x="659.5" y="100" as="targetPoint" />
          </mxGeometry>
        </mxCell>
        <mxCell id="gqhiWl2v0TtvqMzt5mS7-10" value="" style="endArrow=none;dashed=1;html=1;dashPattern=1 3;strokeWidth=2;rounded=0;" parent="1" edge="1">
          <mxGeometry width="50" height="50" relative="1" as="geometry">
            <mxPoint x="870" y="670" as="sourcePoint" />
            <mxPoint x="870" y="100" as="targetPoint" />
          </mxGeometry>
        </mxCell>
        <mxCell id="gqhiWl2v0TtvqMzt5mS7-11" value="" style="endArrow=none;dashed=1;html=1;dashPattern=1 3;strokeWidth=2;rounded=0;" parent="1" edge="1">
          <mxGeometry width="50" height="50" relative="1" as="geometry">
            <mxPoint x="1060" y="830" as="sourcePoint" />
            <mxPoint x="1059.5" y="100" as="targetPoint" />
          </mxGeometry>
        </mxCell>
        <mxCell id="gqhiWl2v0TtvqMzt5mS7-12" value="" style="endArrow=classic;html=1;rounded=0;" parent="1" edge="1">
          <mxGeometry width="50" height="50" relative="1" as="geometry">
            <mxPoint x="130" y="140" as="sourcePoint" />
            <mxPoint x="310" y="140" as="targetPoint" />
          </mxGeometry>
        </mxCell>
        <mxCell id="gqhiWl2v0TtvqMzt5mS7-16" value="getCurrent&lt;div&gt;WeekProgram(year, week)&lt;/div&gt;" style="edgeLabel;html=1;align=center;verticalAlign=middle;resizable=0;points=[];" parent="gqhiWl2v0TtvqMzt5mS7-12" vertex="1" connectable="0">
          <mxGeometry x="0.0222" y="1" relative="1" as="geometry">
            <mxPoint as="offset" />
          </mxGeometry>
        </mxCell>
        <mxCell id="gqhiWl2v0TtvqMzt5mS7-19" value="AdditionalDate&lt;div&gt;TimeWorker&lt;/div&gt;" style="rounded=0;whiteSpace=wrap;html=1;" parent="1" vertex="1">
          <mxGeometry x="440" y="40" width="120" height="60" as="geometry" />
        </mxCell>
        <mxCell id="gqhiWl2v0TtvqMzt5mS7-20" value="" style="endArrow=none;dashed=1;html=1;dashPattern=1 3;strokeWidth=2;rounded=0;" parent="1" edge="1">
          <mxGeometry width="50" height="50" relative="1" as="geometry">
            <mxPoint x="500" y="200" as="sourcePoint" />
            <mxPoint x="500" y="100" as="targetPoint" />
          </mxGeometry>
        </mxCell>
        <mxCell id="gqhiWl2v0TtvqMzt5mS7-71" value="" style="endArrow=none;dashed=1;html=1;dashPattern=1 3;strokeWidth=2;rounded=0;" parent="1" edge="1">
          <mxGeometry width="50" height="50" relative="1" as="geometry">
            <mxPoint x="500" y="2082.4242424242425" as="sourcePoint" />
            <mxPoint x="500" y="190" as="targetPoint" />
          </mxGeometry>
        </mxCell>
        <mxCell id="gqhiWl2v0TtvqMzt5mS7-77" value="" style="endArrow=none;dashed=1;html=1;dashPattern=1 3;strokeWidth=2;rounded=0;" parent="1" edge="1">
          <mxGeometry width="50" height="50" relative="1" as="geometry">
            <mxPoint x="660" y="2085.3333333333335" as="sourcePoint" />
            <mxPoint x="660" y="390" as="targetPoint" />
          </mxGeometry>
        </mxCell>
        <mxCell id="gqhiWl2v0TtvqMzt5mS7-107" value="FilmRepository" style="rounded=0;whiteSpace=wrap;html=1;" parent="1" vertex="1">
          <mxGeometry x="1330" y="40" width="120" height="60" as="geometry" />
        </mxCell>
        <mxCell id="gqhiWl2v0TtvqMzt5mS7-108" value="" style="endArrow=none;dashed=1;html=1;dashPattern=1 3;strokeWidth=2;rounded=0;" parent="1" edge="1">
          <mxGeometry width="50" height="50" relative="1" as="geometry">
            <mxPoint x="1219" y="2082.13330078125" as="sourcePoint" />
            <mxPoint x="1219" y="100" as="targetPoint" />
          </mxGeometry>
        </mxCell>
        <mxCell id="gqhiWl2v0TtvqMzt5mS7-136" value="" style="endArrow=classic;html=1;rounded=0;" parent="1" edge="1">
          <mxGeometry width="50" height="50" relative="1" as="geometry">
            <mxPoint x="310" y="970" as="sourcePoint" />
            <mxPoint x="310" y="970.0000000000023" as="targetPoint" />
            <Array as="points" />
          </mxGeometry>
        </mxCell>
        <mxCell id="gqhiWl2v0TtvqMzt5mS7-141" value="" style="endArrow=none;dashed=1;html=1;dashPattern=1 3;strokeWidth=2;rounded=0;" parent="1" edge="1">
          <mxGeometry width="50" height="50" relative="1" as="geometry">
            <mxPoint x="870" y="2081.0667317708335" as="sourcePoint" />
            <mxPoint x="870" y="655" as="targetPoint" />
          </mxGeometry>
        </mxCell>
        <mxCell id="gqhiWl2v0TtvqMzt5mS7-144" value="" style="endArrow=none;dashed=1;html=1;dashPattern=1 3;strokeWidth=2;rounded=0;" parent="1" edge="1">
          <mxGeometry width="50" height="50" relative="1" as="geometry">
            <mxPoint x="1060" y="930" as="sourcePoint" />
            <mxPoint x="1060" y="820" as="targetPoint" />
          </mxGeometry>
        </mxCell>
        <mxCell id="gqhiWl2v0TtvqMzt5mS7-146" value="" style="endArrow=none;dashed=1;html=1;dashPattern=1 3;strokeWidth=2;rounded=0;" parent="1" edge="1">
          <mxGeometry width="50" height="50" relative="1" as="geometry">
            <mxPoint x="1060" y="2081.0665690104165" as="sourcePoint" />
            <mxPoint x="1060" y="920" as="targetPoint" />
          </mxGeometry>
        </mxCell>
        <mxCell id="gqhiWl2v0TtvqMzt5mS7-149" value="" style="endArrow=none;dashed=1;html=1;dashPattern=1 3;strokeWidth=2;rounded=0;" parent="1" target="gqhiWl2v0TtvqMzt5mS7-148" edge="1">
          <mxGeometry width="50" height="50" relative="1" as="geometry">
            <mxPoint x="1390" y="2083.2000325520835" as="sourcePoint" />
            <mxPoint x="1390" y="100" as="targetPoint" />
          </mxGeometry>
        </mxCell>
        <mxCell id="gqhiWl2v0TtvqMzt5mS7-148" value="" style="html=1;points=[[0,0,0,0,5],[0,1,0,0,-5],[1,0,0,0,5],[1,1,0,0,-5]];perimeter=orthogonalPerimeter;outlineConnect=0;targetShapes=umlLifeline;portConstraint=eastwest;newEdgeStyle={&quot;curved&quot;:0,&quot;rounded&quot;:0};" parent="1" vertex="1">
          <mxGeometry x="1390" y="1340" width="10" height="30" as="geometry" />
        </mxCell>
        <mxCell id="yQC0ypKdKQxIh3f0r_yP-1" value="Scheduled&lt;div&gt;Activity&lt;/div&gt;&lt;div&gt;Service&lt;/div&gt;" style="rounded=0;whiteSpace=wrap;html=1;" vertex="1" parent="1">
          <mxGeometry x="1480" y="40" width="120" height="60" as="geometry" />
        </mxCell>
        <mxCell id="yQC0ypKdKQxIh3f0r_yP-2" value="Spring" style="rounded=0;whiteSpace=wrap;html=1;" vertex="1" parent="1">
          <mxGeometry x="1634" y="40" width="120" height="60" as="geometry" />
        </mxCell>
        <mxCell id="yQC0ypKdKQxIh3f0r_yP-3" value="CinemaShowService" style="rounded=0;whiteSpace=wrap;html=1;" vertex="1" parent="1">
          <mxGeometry x="1000" y="40" width="140" height="60" as="geometry" />
        </mxCell>
        <mxCell id="yQC0ypKdKQxIh3f0r_yP-4" value="" style="endArrow=none;dashed=1;html=1;dashPattern=1 3;strokeWidth=2;rounded=0;" edge="1" parent="1">
          <mxGeometry width="50" height="50" relative="1" as="geometry">
            <mxPoint x="1394.5" y="2082.13330078125" as="sourcePoint" />
            <mxPoint x="1394.5" y="100" as="targetPoint" />
          </mxGeometry>
        </mxCell>
        <mxCell id="yQC0ypKdKQxIh3f0r_yP-5" value="" style="endArrow=none;dashed=1;html=1;dashPattern=1 3;strokeWidth=2;rounded=0;" edge="1" parent="1">
          <mxGeometry width="50" height="50" relative="1" as="geometry">
            <mxPoint x="1539.5" y="2082.13330078125" as="sourcePoint" />
            <mxPoint x="1539.5" y="100" as="targetPoint" />
          </mxGeometry>
        </mxCell>
        <mxCell id="yQC0ypKdKQxIh3f0r_yP-6" value="" style="endArrow=none;dashed=1;html=1;dashPattern=1 3;strokeWidth=2;rounded=0;" edge="1" parent="1">
          <mxGeometry width="50" height="50" relative="1" as="geometry">
            <mxPoint x="1700" y="2082.13330078125" as="sourcePoint" />
            <mxPoint x="1700" y="100" as="targetPoint" />
          </mxGeometry>
        </mxCell>
      </root>
    </mxGraphModel>
  </diagram>
</mxfile>
